<svg id="SVG" xmlns="http://www.w3.org/2000/svg" viewBox="0 0 180 50"><defs><style>.cls-1{fill:#1a6fb7;}</style></defs><title>logo</title><path class="cls-1" d="M43.14,3.64h15V6.72h-15c-1.76,0-3.25,1.22-5.15,2.75-2.63,2.14-5.9,4.8-11.2,4.8-10.3,0-13.05,3.29-13.65,4.3l-0.07.13v5.36l2.1-.07,0.25,3.13-5.43,0V18.23l0.05-.2A7,7,0,0,1,13,14.44c3-2.12,7.79-3.24,13.83-3.24,4.2,0,6.88-2.18,9.25-4.11C38.23,5.32,40.29,3.64,43.14,3.64ZM30.22,24.87a6.28,6.28,0,1,1-6.28-6.28A6.29,6.29,0,0,1,30.22,24.87Zm-3.08,0a3.2,3.2,0,1,0-3.2,3.2A3.2,3.2,0,0,0,27.14,24.87Zm5.72-.52V27H44A15.78,15.78,0,0,1,43,24.35H32.87Zm22.68-1.49a4,4,0,0,1-3-1.24,4.41,4.41,0,0,1-1.18-3.16,4.42,4.42,0,0,1,1.18-3.16,4,4,0,0,1,3-1.24,4.87,4.87,0,0,1,2.63.86V10.56a7.23,7.23,0,0,0-3.39-.83,8.22,8.22,0,0,0-6.71,3,8.76,8.76,0,0,0-2,5.69,8.81,8.81,0,0,0,2,5.69,8.22,8.22,0,0,0,6.71,3,7.46,7.46,0,0,0,3.39-.82V22A5,5,0,0,1,55.54,22.85ZM91.81,10a5.78,5.78,0,0,0-3.14.83,6.11,6.11,0,0,0-1.82,2l-0.52.87V10.26H81.23V26.62h5.08v-7a7.65,7.65,0,0,1,.33-2.46,3.69,3.69,0,0,1,3.86-2.63,5.39,5.39,0,0,1,2.11.44v-5ZM116,15.08a7.27,7.27,0,0,1,.47,3.14v8.08h5.08V15.58a10.09,10.09,0,0,0-.26-2.51,4.38,4.38,0,0,0-1.84-2.55,5.43,5.43,0,0,0-3-.87A5.74,5.74,0,0,0,112.72,11a6.14,6.14,0,0,0-1.39,1.71l-0.24.41-0.24-.41a7,7,0,0,0-1.45-1.79,5.7,5.7,0,0,0-3.75-1.23,6.34,6.34,0,0,0-3.2.82,8.54,8.54,0,0,0-1.76,1.45l-0.48.49V9.94H95.13V26.31h5.08V18.23a12.44,12.44,0,0,1,.12-2,3.12,3.12,0,0,1,.45-1.23,2.6,2.6,0,0,1,2.29-1.26,2.52,2.52,0,0,1,2.36,1.47,7.51,7.51,0,0,1,.38,3v8.08h5.08V18.23a6.17,6.17,0,0,1,.58-3,2.65,2.65,0,0,1,2.4-1.44A2.32,2.32,0,0,1,116,15.08ZM140.41,10h-5.08v9.31a3.59,3.59,0,0,1-.8,2.56,3.48,3.48,0,0,1-4.65,0,3.59,3.59,0,0,1-.8-2.55V10H124V20.43a6.27,6.27,0,0,0,1.3,4.13c1.38,1.66,3.71,2.49,6.91,2.49a12.33,12.33,0,0,0,4.18-.62c2.7-1,4-3,4-6V10Zm20.11-6.78V26.62h-5.08V24.17l-0.5.68a5.68,5.68,0,0,1-1.55,1.5,6,6,0,0,1-3.14.82,7.27,7.27,0,0,1-5.09-2.1,8.72,8.72,0,0,1-2.66-6.64,8.7,8.7,0,0,1,2.73-6.71,7.17,7.17,0,0,1,5-2,6.64,6.64,0,0,1,3.07.74,6.18,6.18,0,0,1,1.68,1.38l0.49,0.54V3.17h5.08ZM155.6,18.44a4.17,4.17,0,0,0-1.14-3,3.75,3.75,0,0,0-5.73.25,4.37,4.37,0,0,0,0,5.41,3.61,3.61,0,0,0,3,1.46,3.67,3.67,0,0,0,2.77-1.21A4.18,4.18,0,0,0,155.6,18.44ZM166.29,9.5a3,3,0,0,0,2.94-3.14,3,3,0,1,0-5.89,0A3,3,0,0,0,166.29,9.5Zm0,3.47a4.4,4.4,0,0,1-2.38-.69v15h4.79v-15A4.4,4.4,0,0,1,166.28,13ZM78.5,10.26V26.62H73.42V24.17l-0.5.68a5.68,5.68,0,0,1-1.55,1.5,6,6,0,0,1-3.14.82,7.27,7.27,0,0,1-5.09-2.1,8.72,8.72,0,0,1-2.67-6.64,8.7,8.7,0,0,1,2.73-6.71,7.17,7.17,0,0,1,5-2,6.78,6.78,0,0,1,3.07.72,6.18,6.18,0,0,1,1.68,1.38l0.49,0.54V10.26H78.5Zm-4.91,8.18a4.13,4.13,0,0,0-1.14-2.93,3.76,3.76,0,0,0-5.73.25,4.32,4.32,0,0,0,0,5.37,3.62,3.62,0,0,0,3,1.45,3.69,3.69,0,0,0,2.77-1.2A4.14,4.14,0,0,0,73.59,18.44ZM97.39,35.08A2.57,2.57,0,0,1,98.17,37a2.48,2.48,0,0,1-.83,2,3.29,3.29,0,0,1-2.24.73H94.46v3.67H93.09v-9h1.55a7,7,0,0,1,1.72.16A2.3,2.3,0,0,1,97.39,35.08ZM96.85,37q0-1.4-1.94-1.4H94.46v2.85H95Q96.85,38.43,96.85,37Zm8.89,0.88h-3.9V34.32h-1.37v9h1.37V39.14h3.9v4.22h1.37v-9h-1.37v3.54Zm4.43,5.51h1.37v-9h-1.37v9Zm5.8-9h-1.37v9h4V42.08H116V34.32Zm4.85,9h1.37v-9h-1.37v9Zm8.73-8.29a2.57,2.57,0,0,1,.78,1.92,2.48,2.48,0,0,1-.83,2,3.29,3.29,0,0,1-2.24.73h-0.63v3.67h-1.37v-9h1.55a7,7,0,0,1,1.72.16A2.3,2.3,0,0,1,129.57,35.08ZM129,37q0-1.4-1.94-1.4h-0.45v2.85h0.51Q129,38.43,129,37Zm7.92-1.9a2.57,2.57,0,0,1,.78,1.92,2.48,2.48,0,0,1-.83,2,3.29,3.29,0,0,1-2.24.73H134v3.67h-1.37v-9h1.55a7,7,0,0,1,1.72.16A2.3,2.3,0,0,1,136.95,35.08ZM136.41,37q0-1.4-1.94-1.4H134v2.85h0.51Q136.41,38.43,136.41,37ZM140,43.37h1.37v-9H140v9Zm11-2.76-6.6-6.9v9.66h1.37V37l6.6,6.88v-9.6h-1.37v6.29Zm4.43,2.76h5V42.08h-3.63v-3h3.52V37.78h-3.52V35.6h3.63V34.32h-5v9ZM166.42,38l-0.9-.37a1.26,1.26,0,0,1-1-1.07,1,1,0,0,1,.38-0.8,1.4,1.4,0,0,1,.94-0.32,1.38,1.38,0,0,1,.76.19,1.9,1.9,0,0,1,.59.7l1.11-.66a2.71,2.71,0,0,0-2.44-1.52,2.82,2.82,0,0,0-1.94.69,2.18,2.18,0,0,0-.78,1.7,2.51,2.51,0,0,0,1.86,2.3l0.87,0.36a3.87,3.87,0,0,1,.59.31,1.83,1.83,0,0,1,.4.35,1.23,1.23,0,0,1,.23.4,1.52,1.52,0,0,1,.07.48,1.48,1.48,0,0,1-.42,1.08,1.56,1.56,0,0,1-2.29-.16,2.35,2.35,0,0,1-.33-1.1l-1.38.3a3.22,3.22,0,0,0,.94,2,2.78,2.78,0,0,0,1.95.7,2.85,2.85,0,0,0,2.08-.82,2.77,2.77,0,0,0,.83-2.06,2.45,2.45,0,0,0-.51-1.57A3.84,3.84,0,0,0,166.42,38Z"/></svg>